<mxfile host="www.draw.io" modified="2020-01-31T05:11:45.313Z" agent="Mozilla/5.0 (Windows NT 10.0; Win64; x64) AppleWebKit/537.36 (KHTML, like Gecko) Chrome/79.0.3945.130 Safari/537.36" etag="LAfwcp6XvDYjqnE95U6G" version="12.6.2" type="github">
  <diagram id="GMiIaLmrmH-sFvdItDLf" name="Page-1">
    <mxGraphModel dx="1718" dy="482" grid="1" gridSize="10" guides="1" tooltips="1" connect="1" arrows="1" fold="1" page="1" pageScale="1" pageWidth="850" pageHeight="1100" math="0" shadow="0">
      <root>
        <mxCell id="0"/>
        <mxCell id="1" parent="0"/>
        <mxCell id="Eroy5vExTZT6iTykI3cA-1" value="" style="verticalLabelPosition=bottom;verticalAlign=top;html=1;shadow=0;dashed=0;strokeWidth=1;shape=mxgraph.android.phone2;strokeColor=#c0c0c0;fillColor=#B3B3B3;" parent="1" vertex="1">
          <mxGeometry x="70" y="220" width="200" height="390" as="geometry"/>
        </mxCell>
        <mxCell id="Eroy5vExTZT6iTykI3cA-3" value="" style="verticalLabelPosition=bottom;shadow=0;dashed=0;align=center;html=1;verticalAlign=top;strokeWidth=1;shape=mxgraph.mockup.misc.map;fillColor=#B3B3B3;" parent="1" vertex="1">
          <mxGeometry x="80" y="290" width="180" height="250" as="geometry"/>
        </mxCell>
        <mxCell id="Eroy5vExTZT6iTykI3cA-4" value="Line 1" style="strokeWidth=1;shadow=0;dashed=0;align=center;html=1;shape=mxgraph.mockup.text.textBox;fontColor=#666666;align=left;fontSize=17;spacingLeft=4;spacingTop=-3;strokeColor=#666666;mainText=;fillColor=#66FFB3;" parent="1" vertex="1">
          <mxGeometry x="80" y="260" width="180" height="30" as="geometry"/>
        </mxCell>
        <mxCell id="Eroy5vExTZT6iTykI3cA-6" value="" style="shape=mxgraph.bpmn.shape;html=1;verticalLabelPosition=bottom;labelBackgroundColor=#ffffff;verticalAlign=top;align=center;perimeter=ellipsePerimeter;outlineConnect=0;outline=standard;symbol=general;fillColor=#FF3333;" parent="1" vertex="1">
          <mxGeometry x="202" y="490" width="50" height="50" as="geometry"/>
        </mxCell>
        <mxCell id="Eroy5vExTZT6iTykI3cA-7" value="" style="outlineConnect=0;fontColor=#232F3E;gradientColor=none;fillColor=#D05C17;strokeColor=none;dashed=0;verticalLabelPosition=bottom;verticalAlign=top;align=center;html=1;fontSize=12;fontStyle=0;aspect=fixed;pointerEvents=1;shape=mxgraph.aws4.container_registry_image;" parent="1" vertex="1">
          <mxGeometry x="110" y="545" width="28" height="28" as="geometry"/>
        </mxCell>
        <mxCell id="Eroy5vExTZT6iTykI3cA-8" value="" style="shape=image;html=1;verticalAlign=top;verticalLabelPosition=bottom;labelBackgroundColor=#ffffff;imageAspect=0;aspect=fixed;image=https://cdn3.iconfinder.com/data/icons/google-material-design-icons/48/ic_dashboard_48px-128.png;fillColor=#FF3333;" parent="1" vertex="1">
          <mxGeometry x="190" y="540" width="38" height="38" as="geometry"/>
        </mxCell>
        <mxCell id="Eroy5vExTZT6iTykI3cA-9" value="" style="dashed=0;aspect=fixed;verticalLabelPosition=bottom;verticalAlign=top;align=center;shape=mxgraph.gmdl.calendar;strokeColor=none;fillColor=#737373;shadow=0;" parent="1" vertex="1">
          <mxGeometry x="217" y="505" width="20" height="20" as="geometry"/>
        </mxCell>
        <mxCell id="Eroy5vExTZT6iTykI3cA-11" value="" style="shape=image;html=1;verticalAlign=top;verticalLabelPosition=bottom;labelBackgroundColor=#ffffff;imageAspect=0;aspect=fixed;image=https://cdn0.iconfinder.com/data/icons/typicons-2/24/th-menu-128.png;fillColor=#FF3333;" parent="1" vertex="1">
          <mxGeometry x="228" y="261" width="28" height="28" as="geometry"/>
        </mxCell>
        <mxCell id="Eroy5vExTZT6iTykI3cA-14" value="" style="verticalLabelPosition=bottom;verticalAlign=top;html=1;shadow=0;dashed=0;strokeWidth=1;shape=mxgraph.android.phone2;strokeColor=#c0c0c0;fillColor=#B3B3B3;" parent="1" vertex="1">
          <mxGeometry x="380" y="220" width="200" height="390" as="geometry"/>
        </mxCell>
        <mxCell id="Eroy5vExTZT6iTykI3cA-15" value="" style="verticalLabelPosition=bottom;shadow=0;dashed=0;align=center;html=1;verticalAlign=top;strokeWidth=1;shape=mxgraph.mockup.misc.map;fillColor=#B3B3B3;" parent="1" vertex="1">
          <mxGeometry x="390" y="290" width="180" height="250" as="geometry"/>
        </mxCell>
        <mxCell id="Eroy5vExTZT6iTykI3cA-16" value="Line 1" style="strokeWidth=1;shadow=0;dashed=0;align=center;html=1;shape=mxgraph.mockup.text.textBox;fontColor=#666666;align=left;fontSize=17;spacingLeft=4;spacingTop=-3;strokeColor=#666666;mainText=;fillColor=#66FFB3;" parent="1" vertex="1">
          <mxGeometry x="390" y="260" width="180" height="30" as="geometry"/>
        </mxCell>
        <mxCell id="Eroy5vExTZT6iTykI3cA-17" value="" style="shape=mxgraph.bpmn.shape;html=1;verticalLabelPosition=bottom;labelBackgroundColor=#ffffff;verticalAlign=top;align=center;perimeter=ellipsePerimeter;outlineConnect=0;outline=standard;symbol=general;fillColor=#FF3333;" parent="1" vertex="1">
          <mxGeometry x="512" y="490" width="50" height="50" as="geometry"/>
        </mxCell>
        <mxCell id="Eroy5vExTZT6iTykI3cA-18" value="" style="outlineConnect=0;fontColor=#232F3E;gradientColor=none;fillColor=#D05C17;strokeColor=none;dashed=0;verticalLabelPosition=bottom;verticalAlign=top;align=center;html=1;fontSize=12;fontStyle=0;aspect=fixed;pointerEvents=1;shape=mxgraph.aws4.container_registry_image;" parent="1" vertex="1">
          <mxGeometry x="420" y="545" width="28" height="28" as="geometry"/>
        </mxCell>
        <mxCell id="Eroy5vExTZT6iTykI3cA-19" value="" style="shape=image;html=1;verticalAlign=top;verticalLabelPosition=bottom;labelBackgroundColor=#ffffff;imageAspect=0;aspect=fixed;image=https://cdn3.iconfinder.com/data/icons/google-material-design-icons/48/ic_dashboard_48px-128.png;fillColor=#FF3333;" parent="1" vertex="1">
          <mxGeometry x="500" y="540" width="38" height="38" as="geometry"/>
        </mxCell>
        <mxCell id="Eroy5vExTZT6iTykI3cA-20" value="" style="dashed=0;aspect=fixed;verticalLabelPosition=bottom;verticalAlign=top;align=center;shape=mxgraph.gmdl.calendar;strokeColor=none;fillColor=#737373;shadow=0;" parent="1" vertex="1">
          <mxGeometry x="527" y="505" width="20" height="20" as="geometry"/>
        </mxCell>
        <mxCell id="Eroy5vExTZT6iTykI3cA-21" value="" style="shape=image;html=1;verticalAlign=top;verticalLabelPosition=bottom;labelBackgroundColor=#ffffff;imageAspect=0;aspect=fixed;image=https://cdn0.iconfinder.com/data/icons/typicons-2/24/th-menu-128.png;fillColor=#FF3333;" parent="1" vertex="1">
          <mxGeometry x="538" y="261" width="28" height="28" as="geometry"/>
        </mxCell>
        <mxCell id="Eroy5vExTZT6iTykI3cA-75" value="" style="html=1;shadow=0;dashed=0;align=center;verticalAlign=middle;shape=mxgraph.arrows2.arrow;dy=0.6;dx=40;notch=0;fillColor=#000000;direction=west;" parent="1" vertex="1">
          <mxGeometry x="-40" y="505" width="130" height="40" as="geometry"/>
        </mxCell>
        <mxCell id="Eroy5vExTZT6iTykI3cA-77" value="Calendar" style="whiteSpace=wrap;html=1;shape=mxgraph.basic.roundRectCallout;dx=30;dy=15;size=5;boundedLbl=1;fillColor=#99CCFF;" parent="1" vertex="1">
          <mxGeometry x="237" y="435" width="100" height="60" as="geometry"/>
        </mxCell>
        <mxCell id="Eroy5vExTZT6iTykI3cA-78" value="" style="shape=image;html=1;verticalAlign=top;verticalLabelPosition=bottom;labelBackgroundColor=#ffffff;imageAspect=0;aspect=fixed;image=https://cdn3.iconfinder.com/data/icons/glypho-free/64/share-128.png;fillColor=#000000;" parent="1" vertex="1">
          <mxGeometry x="90" y="502" width="38" height="38" as="geometry"/>
        </mxCell>
        <mxCell id="Eroy5vExTZT6iTykI3cA-79" value="" style="verticalLabelPosition=bottom;verticalAlign=top;html=1;shadow=0;dashed=0;strokeWidth=1;shape=mxgraph.android.phone2;strokeColor=#c0c0c0;fillColor=#B3B3B3;" parent="1" vertex="1">
          <mxGeometry x="-240" y="220" width="200" height="390" as="geometry"/>
        </mxCell>
        <mxCell id="Eroy5vExTZT6iTykI3cA-80" value="" style="verticalLabelPosition=bottom;shadow=0;dashed=0;align=center;html=1;verticalAlign=top;strokeWidth=1;shape=mxgraph.mockup.misc.map;fillColor=#B3B3B3;" parent="1" vertex="1">
          <mxGeometry x="-230" y="290" width="180" height="250" as="geometry"/>
        </mxCell>
        <mxCell id="Eroy5vExTZT6iTykI3cA-81" value="Line 1" style="strokeWidth=1;shadow=0;dashed=0;align=center;html=1;shape=mxgraph.mockup.text.textBox;fontColor=#666666;align=left;fontSize=17;spacingLeft=4;spacingTop=-3;strokeColor=#666666;mainText=;fillColor=#66FFB3;" parent="1" vertex="1">
          <mxGeometry x="-230" y="260" width="180" height="30" as="geometry"/>
        </mxCell>
        <mxCell id="Eroy5vExTZT6iTykI3cA-82" value="" style="shape=mxgraph.bpmn.shape;html=1;verticalLabelPosition=bottom;labelBackgroundColor=#ffffff;verticalAlign=top;align=center;perimeter=ellipsePerimeter;outlineConnect=0;outline=standard;symbol=general;fillColor=#FF3333;" parent="1" vertex="1">
          <mxGeometry x="-108" y="490" width="50" height="50" as="geometry"/>
        </mxCell>
        <mxCell id="Eroy5vExTZT6iTykI3cA-83" value="" style="outlineConnect=0;fontColor=#232F3E;gradientColor=none;fillColor=#D05C17;strokeColor=none;dashed=0;verticalLabelPosition=bottom;verticalAlign=top;align=center;html=1;fontSize=12;fontStyle=0;aspect=fixed;pointerEvents=1;shape=mxgraph.aws4.container_registry_image;" parent="1" vertex="1">
          <mxGeometry x="-200" y="545" width="28" height="28" as="geometry"/>
        </mxCell>
        <mxCell id="Eroy5vExTZT6iTykI3cA-84" value="" style="shape=image;html=1;verticalAlign=top;verticalLabelPosition=bottom;labelBackgroundColor=#ffffff;imageAspect=0;aspect=fixed;image=https://cdn3.iconfinder.com/data/icons/google-material-design-icons/48/ic_dashboard_48px-128.png;fillColor=#FF3333;" parent="1" vertex="1">
          <mxGeometry x="-120" y="540" width="38" height="38" as="geometry"/>
        </mxCell>
        <mxCell id="Eroy5vExTZT6iTykI3cA-85" value="" style="dashed=0;aspect=fixed;verticalLabelPosition=bottom;verticalAlign=top;align=center;shape=mxgraph.gmdl.calendar;strokeColor=none;fillColor=#737373;shadow=0;" parent="1" vertex="1">
          <mxGeometry x="-93" y="505" width="20" height="20" as="geometry"/>
        </mxCell>
        <mxCell id="Eroy5vExTZT6iTykI3cA-86" value="" style="shape=image;html=1;verticalAlign=top;verticalLabelPosition=bottom;labelBackgroundColor=#ffffff;imageAspect=0;aspect=fixed;image=https://cdn0.iconfinder.com/data/icons/typicons-2/24/th-menu-128.png;fillColor=#FF3333;" parent="1" vertex="1">
          <mxGeometry x="-82" y="261" width="28" height="28" as="geometry"/>
        </mxCell>
        <mxCell id="Eroy5vExTZT6iTykI3cA-140" value="" style="shape=image;html=1;verticalAlign=top;verticalLabelPosition=bottom;labelBackgroundColor=#ffffff;imageAspect=0;aspect=fixed;image=https://cdn3.iconfinder.com/data/icons/virtual-notebook/16/button_share-128.png;fillColor=#000000;" parent="1" vertex="1">
          <mxGeometry x="-220" y="501" width="28" height="28" as="geometry"/>
        </mxCell>
        <mxCell id="Eroy5vExTZT6iTykI3cA-142" value="" style="shape=image;html=1;verticalAlign=top;verticalLabelPosition=bottom;labelBackgroundColor=#ffffff;imageAspect=0;aspect=fixed;image=https://cdn3.iconfinder.com/data/icons/virtual-notebook/16/button_share-128.png;fillColor=#000000;" parent="1" vertex="1">
          <mxGeometry x="400" y="505" width="28" height="28" as="geometry"/>
        </mxCell>
        <mxCell id="Eroy5vExTZT6iTykI3cA-22" value="" style="strokeWidth=1;shadow=0;dashed=0;align=center;html=1;shape=mxgraph.mockup.forms.rrect;rSize=5;strokeColor=#999999;fillColor=#ffffff;" parent="1" vertex="1">
          <mxGeometry x="400" y="310" width="160" height="210" as="geometry"/>
        </mxCell>
        <mxCell id="Eroy5vExTZT6iTykI3cA-23" value="October 2014" style="strokeWidth=1;shadow=0;dashed=0;align=center;html=1;shape=mxgraph.mockup.forms.anchor;fontColor=#999999;" parent="Eroy5vExTZT6iTykI3cA-22" vertex="1">
          <mxGeometry x="30" y="9.6" width="100" height="23.999999999999996" as="geometry"/>
        </mxCell>
        <mxCell id="Eroy5vExTZT6iTykI3cA-24" value="&lt;" style="strokeWidth=1;shadow=0;dashed=0;align=center;html=1;shape=mxgraph.mockup.forms.rrect;rSize=4;strokeColor=#999999;fontColor=#008cff;fontSize=19;fontStyle=1;" parent="Eroy5vExTZT6iTykI3cA-22" vertex="1">
          <mxGeometry x="8" y="9.6" width="25" height="23.999999999999996" as="geometry"/>
        </mxCell>
        <mxCell id="Eroy5vExTZT6iTykI3cA-25" value="&gt;" style="strokeWidth=1;shadow=0;dashed=0;align=center;html=1;shape=mxgraph.mockup.forms.rrect;rSize=4;strokeColor=#999999;fontColor=#008cff;fontSize=19;fontStyle=1;" parent="Eroy5vExTZT6iTykI3cA-22" vertex="1">
          <mxGeometry x="127" y="9.6" width="25" height="23.999999999999996" as="geometry"/>
        </mxCell>
        <mxCell id="Eroy5vExTZT6iTykI3cA-26" value="Mo" style="strokeWidth=1;shadow=0;dashed=0;align=center;html=1;shape=mxgraph.mockup.forms.anchor;fontColor=#999999;" parent="Eroy5vExTZT6iTykI3cA-22" vertex="1">
          <mxGeometry x="10" y="33.6" width="20" height="23.999999999999996" as="geometry"/>
        </mxCell>
        <mxCell id="Eroy5vExTZT6iTykI3cA-27" value="Tu" style="strokeWidth=1;shadow=0;dashed=0;align=center;html=1;shape=mxgraph.mockup.forms.anchor;fontColor=#999999;" parent="Eroy5vExTZT6iTykI3cA-22" vertex="1">
          <mxGeometry x="30" y="33.6" width="20" height="23.999999999999996" as="geometry"/>
        </mxCell>
        <mxCell id="Eroy5vExTZT6iTykI3cA-28" value="We" style="strokeWidth=1;shadow=0;dashed=0;align=center;html=1;shape=mxgraph.mockup.forms.anchor;fontColor=#999999;" parent="Eroy5vExTZT6iTykI3cA-22" vertex="1">
          <mxGeometry x="50" y="33.6" width="20" height="23.999999999999996" as="geometry"/>
        </mxCell>
        <mxCell id="Eroy5vExTZT6iTykI3cA-29" value="Th" style="strokeWidth=1;shadow=0;dashed=0;align=center;html=1;shape=mxgraph.mockup.forms.anchor;fontColor=#999999;" parent="Eroy5vExTZT6iTykI3cA-22" vertex="1">
          <mxGeometry x="70" y="33.6" width="20" height="23.999999999999996" as="geometry"/>
        </mxCell>
        <mxCell id="Eroy5vExTZT6iTykI3cA-30" value="Fr" style="strokeWidth=1;shadow=0;dashed=0;align=center;html=1;shape=mxgraph.mockup.forms.anchor;fontColor=#999999;" parent="Eroy5vExTZT6iTykI3cA-22" vertex="1">
          <mxGeometry x="90" y="33.6" width="20" height="23.999999999999996" as="geometry"/>
        </mxCell>
        <mxCell id="Eroy5vExTZT6iTykI3cA-31" value="Sa" style="strokeWidth=1;shadow=0;dashed=0;align=center;html=1;shape=mxgraph.mockup.forms.anchor;fontColor=#999999;" parent="Eroy5vExTZT6iTykI3cA-22" vertex="1">
          <mxGeometry x="110" y="33.6" width="20" height="23.999999999999996" as="geometry"/>
        </mxCell>
        <mxCell id="Eroy5vExTZT6iTykI3cA-32" value="Su" style="strokeWidth=1;shadow=0;dashed=0;align=center;html=1;shape=mxgraph.mockup.forms.anchor;fontColor=#999999;" parent="Eroy5vExTZT6iTykI3cA-22" vertex="1">
          <mxGeometry x="130" y="33.6" width="20" height="23.999999999999996" as="geometry"/>
        </mxCell>
        <mxCell id="Eroy5vExTZT6iTykI3cA-33" value="1" style="strokeWidth=1;shadow=0;dashed=0;align=center;html=1;shape=mxgraph.mockup.forms.rrect;rSize=0;strokeColor=#999999;fontColor=#999999;" parent="Eroy5vExTZT6iTykI3cA-22" vertex="1">
          <mxGeometry x="10" y="57.6" width="20" height="23.999999999999996" as="geometry"/>
        </mxCell>
        <mxCell id="Eroy5vExTZT6iTykI3cA-34" value="2" style="strokeWidth=1;shadow=0;dashed=0;align=center;html=1;shape=mxgraph.mockup.forms.rrect;rSize=0;strokeColor=#999999;fontColor=#999999;" parent="Eroy5vExTZT6iTykI3cA-22" vertex="1">
          <mxGeometry x="30" y="57.6" width="20" height="23.999999999999996" as="geometry"/>
        </mxCell>
        <mxCell id="Eroy5vExTZT6iTykI3cA-35" value="3" style="strokeWidth=1;shadow=0;dashed=0;align=center;html=1;shape=mxgraph.mockup.forms.rrect;rSize=0;strokeColor=#999999;fontColor=#999999;" parent="Eroy5vExTZT6iTykI3cA-22" vertex="1">
          <mxGeometry x="50" y="57.6" width="20" height="23.999999999999996" as="geometry"/>
        </mxCell>
        <mxCell id="Eroy5vExTZT6iTykI3cA-36" value="4" style="strokeWidth=1;shadow=0;dashed=0;align=center;html=1;shape=mxgraph.mockup.forms.rrect;rSize=0;strokeColor=#999999;fontColor=#999999;" parent="Eroy5vExTZT6iTykI3cA-22" vertex="1">
          <mxGeometry x="70" y="57.6" width="20" height="23.999999999999996" as="geometry"/>
        </mxCell>
        <mxCell id="Eroy5vExTZT6iTykI3cA-37" value="5" style="strokeWidth=1;shadow=0;dashed=0;align=center;html=1;shape=mxgraph.mockup.forms.rrect;rSize=0;strokeColor=#999999;fontColor=#999999;" parent="Eroy5vExTZT6iTykI3cA-22" vertex="1">
          <mxGeometry x="90" y="57.6" width="20" height="23.999999999999996" as="geometry"/>
        </mxCell>
        <mxCell id="Eroy5vExTZT6iTykI3cA-38" value="6" style="strokeWidth=1;shadow=0;dashed=0;align=center;html=1;shape=mxgraph.mockup.forms.rrect;rSize=0;strokeColor=#999999;fontColor=#999999;" parent="Eroy5vExTZT6iTykI3cA-22" vertex="1">
          <mxGeometry x="110" y="57.6" width="20" height="23.999999999999996" as="geometry"/>
        </mxCell>
        <mxCell id="Eroy5vExTZT6iTykI3cA-39" value="7" style="strokeWidth=1;shadow=0;dashed=0;align=center;html=1;shape=mxgraph.mockup.forms.rrect;rSize=0;strokeColor=#999999;fontColor=#999999;" parent="Eroy5vExTZT6iTykI3cA-22" vertex="1">
          <mxGeometry x="130" y="57.6" width="20" height="23.999999999999996" as="geometry"/>
        </mxCell>
        <mxCell id="Eroy5vExTZT6iTykI3cA-40" value="8" style="strokeWidth=1;shadow=0;dashed=0;align=center;html=1;shape=mxgraph.mockup.forms.rrect;rSize=0;strokeColor=#999999;fontColor=#999999;" parent="Eroy5vExTZT6iTykI3cA-22" vertex="1">
          <mxGeometry x="10" y="81.6" width="20" height="23.999999999999996" as="geometry"/>
        </mxCell>
        <mxCell id="Eroy5vExTZT6iTykI3cA-41" value="9" style="strokeWidth=1;shadow=0;dashed=0;align=center;html=1;shape=mxgraph.mockup.forms.rrect;rSize=0;strokeColor=#999999;fontColor=#999999;" parent="Eroy5vExTZT6iTykI3cA-22" vertex="1">
          <mxGeometry x="30" y="81.6" width="20" height="23.999999999999996" as="geometry"/>
        </mxCell>
        <mxCell id="Eroy5vExTZT6iTykI3cA-42" value="10" style="strokeWidth=1;shadow=0;dashed=0;align=center;html=1;shape=mxgraph.mockup.forms.rrect;rSize=0;strokeColor=#999999;fontColor=#999999;" parent="Eroy5vExTZT6iTykI3cA-22" vertex="1">
          <mxGeometry x="50" y="81.6" width="20" height="23.999999999999996" as="geometry"/>
        </mxCell>
        <mxCell id="Eroy5vExTZT6iTykI3cA-43" value="11" style="strokeWidth=1;shadow=0;dashed=0;align=center;html=1;shape=mxgraph.mockup.forms.rrect;rSize=0;strokeColor=#999999;fontColor=#999999;" parent="Eroy5vExTZT6iTykI3cA-22" vertex="1">
          <mxGeometry x="70" y="81.6" width="20" height="23.999999999999996" as="geometry"/>
        </mxCell>
        <mxCell id="Eroy5vExTZT6iTykI3cA-44" value="12" style="strokeWidth=1;shadow=0;dashed=0;align=center;html=1;shape=mxgraph.mockup.forms.rrect;rSize=0;strokeColor=#999999;fontColor=#999999;" parent="Eroy5vExTZT6iTykI3cA-22" vertex="1">
          <mxGeometry x="90" y="81.6" width="20" height="23.999999999999996" as="geometry"/>
        </mxCell>
        <mxCell id="Eroy5vExTZT6iTykI3cA-45" value="13" style="strokeWidth=1;shadow=0;dashed=0;align=center;html=1;shape=mxgraph.mockup.forms.rrect;rSize=0;strokeColor=#999999;fontColor=#999999;" parent="Eroy5vExTZT6iTykI3cA-22" vertex="1">
          <mxGeometry x="110" y="81.6" width="20" height="23.999999999999996" as="geometry"/>
        </mxCell>
        <mxCell id="Eroy5vExTZT6iTykI3cA-46" value="14" style="strokeWidth=1;shadow=0;dashed=0;align=center;html=1;shape=mxgraph.mockup.forms.rrect;rSize=0;strokeColor=#999999;fontColor=#999999;" parent="Eroy5vExTZT6iTykI3cA-22" vertex="1">
          <mxGeometry x="130" y="81.6" width="20" height="23.999999999999996" as="geometry"/>
        </mxCell>
        <mxCell id="Eroy5vExTZT6iTykI3cA-47" value="15" style="strokeWidth=1;shadow=0;dashed=0;align=center;html=1;shape=mxgraph.mockup.forms.rrect;rSize=0;strokeColor=#999999;fontColor=#999999;" parent="Eroy5vExTZT6iTykI3cA-22" vertex="1">
          <mxGeometry x="10" y="105.60000000000001" width="20" height="23.999999999999996" as="geometry"/>
        </mxCell>
        <mxCell id="Eroy5vExTZT6iTykI3cA-48" value="16" style="strokeWidth=1;shadow=0;dashed=0;align=center;html=1;shape=mxgraph.mockup.forms.rrect;rSize=0;strokeColor=#999999;fontColor=#999999;" parent="Eroy5vExTZT6iTykI3cA-22" vertex="1">
          <mxGeometry x="30" y="105.60000000000001" width="20" height="23.999999999999996" as="geometry"/>
        </mxCell>
        <mxCell id="Eroy5vExTZT6iTykI3cA-49" value="17" style="strokeWidth=1;shadow=0;dashed=0;align=center;html=1;shape=mxgraph.mockup.forms.rrect;rSize=0;strokeColor=#999999;fontColor=#999999;" parent="Eroy5vExTZT6iTykI3cA-22" vertex="1">
          <mxGeometry x="50" y="105.60000000000001" width="20" height="23.999999999999996" as="geometry"/>
        </mxCell>
        <mxCell id="Eroy5vExTZT6iTykI3cA-50" value="18" style="strokeWidth=1;shadow=0;dashed=0;align=center;html=1;shape=mxgraph.mockup.forms.rrect;rSize=0;strokeColor=#999999;fontColor=#999999;" parent="Eroy5vExTZT6iTykI3cA-22" vertex="1">
          <mxGeometry x="70" y="105.60000000000001" width="20" height="23.999999999999996" as="geometry"/>
        </mxCell>
        <mxCell id="Eroy5vExTZT6iTykI3cA-51" value="19" style="strokeWidth=1;shadow=0;dashed=0;align=center;html=1;shape=mxgraph.mockup.forms.rrect;rSize=0;strokeColor=#999999;fontColor=#999999;" parent="Eroy5vExTZT6iTykI3cA-22" vertex="1">
          <mxGeometry x="90" y="105.60000000000001" width="20" height="23.999999999999996" as="geometry"/>
        </mxCell>
        <mxCell id="Eroy5vExTZT6iTykI3cA-52" value="20" style="strokeWidth=1;shadow=0;dashed=0;align=center;html=1;shape=mxgraph.mockup.forms.rrect;rSize=0;strokeColor=#999999;fontColor=#999999;" parent="Eroy5vExTZT6iTykI3cA-22" vertex="1">
          <mxGeometry x="110" y="105.60000000000001" width="20" height="23.999999999999996" as="geometry"/>
        </mxCell>
        <mxCell id="Eroy5vExTZT6iTykI3cA-53" value="21" style="strokeWidth=1;shadow=0;dashed=0;align=center;html=1;shape=mxgraph.mockup.forms.rrect;rSize=0;strokeColor=#999999;fontColor=#999999;" parent="Eroy5vExTZT6iTykI3cA-22" vertex="1">
          <mxGeometry x="130" y="105.60000000000001" width="20" height="23.999999999999996" as="geometry"/>
        </mxCell>
        <mxCell id="Eroy5vExTZT6iTykI3cA-54" value="22" style="strokeWidth=1;shadow=0;dashed=0;align=center;html=1;shape=mxgraph.mockup.forms.rrect;rSize=0;strokeColor=#999999;fontColor=#999999;" parent="Eroy5vExTZT6iTykI3cA-22" vertex="1">
          <mxGeometry x="10" y="129.6" width="20" height="23.999999999999996" as="geometry"/>
        </mxCell>
        <mxCell id="Eroy5vExTZT6iTykI3cA-55" value="23" style="strokeWidth=1;shadow=0;dashed=0;align=center;html=1;shape=mxgraph.mockup.forms.rrect;rSize=0;strokeColor=#999999;fontColor=#999999;" parent="Eroy5vExTZT6iTykI3cA-22" vertex="1">
          <mxGeometry x="30" y="129.6" width="20" height="23.999999999999996" as="geometry"/>
        </mxCell>
        <mxCell id="Eroy5vExTZT6iTykI3cA-56" value="25" style="strokeWidth=1;shadow=0;dashed=0;align=center;html=1;shape=mxgraph.mockup.forms.rrect;rSize=0;strokeColor=#999999;fontColor=#999999;" parent="Eroy5vExTZT6iTykI3cA-22" vertex="1">
          <mxGeometry x="70" y="129.6" width="20" height="23.999999999999996" as="geometry"/>
        </mxCell>
        <mxCell id="Eroy5vExTZT6iTykI3cA-57" value="26" style="strokeWidth=1;shadow=0;dashed=0;align=center;html=1;shape=mxgraph.mockup.forms.rrect;rSize=0;strokeColor=#999999;fontColor=#999999;" parent="Eroy5vExTZT6iTykI3cA-22" vertex="1">
          <mxGeometry x="90" y="129.6" width="20" height="23.999999999999996" as="geometry"/>
        </mxCell>
        <mxCell id="Eroy5vExTZT6iTykI3cA-58" value="27" style="strokeWidth=1;shadow=0;dashed=0;align=center;html=1;shape=mxgraph.mockup.forms.rrect;rSize=0;strokeColor=#999999;fontColor=#999999;" parent="Eroy5vExTZT6iTykI3cA-22" vertex="1">
          <mxGeometry x="110" y="129.6" width="20" height="23.999999999999996" as="geometry"/>
        </mxCell>
        <mxCell id="Eroy5vExTZT6iTykI3cA-59" value="28" style="strokeWidth=1;shadow=0;dashed=0;align=center;html=1;shape=mxgraph.mockup.forms.rrect;rSize=0;strokeColor=#999999;fontColor=#999999;" parent="Eroy5vExTZT6iTykI3cA-22" vertex="1">
          <mxGeometry x="130" y="129.6" width="20" height="23.999999999999996" as="geometry"/>
        </mxCell>
        <mxCell id="Eroy5vExTZT6iTykI3cA-60" value="29" style="strokeWidth=1;shadow=0;dashed=0;align=center;html=1;shape=mxgraph.mockup.forms.rrect;rSize=0;strokeColor=#999999;fontColor=#999999;" parent="Eroy5vExTZT6iTykI3cA-22" vertex="1">
          <mxGeometry x="10" y="153.6" width="20" height="23.999999999999996" as="geometry"/>
        </mxCell>
        <mxCell id="Eroy5vExTZT6iTykI3cA-61" value="30" style="strokeWidth=1;shadow=0;dashed=0;align=center;html=1;shape=mxgraph.mockup.forms.rrect;rSize=0;strokeColor=#999999;fontColor=#999999;" parent="Eroy5vExTZT6iTykI3cA-22" vertex="1">
          <mxGeometry x="30" y="153.6" width="20" height="23.999999999999996" as="geometry"/>
        </mxCell>
        <mxCell id="Eroy5vExTZT6iTykI3cA-62" value="31" style="strokeWidth=1;shadow=0;dashed=0;align=center;html=1;shape=mxgraph.mockup.forms.rrect;rSize=0;strokeColor=#999999;fontColor=#999999;" parent="Eroy5vExTZT6iTykI3cA-22" vertex="1">
          <mxGeometry x="50" y="153.6" width="20" height="23.999999999999996" as="geometry"/>
        </mxCell>
        <mxCell id="Eroy5vExTZT6iTykI3cA-63" value="1" style="strokeWidth=1;shadow=0;dashed=0;align=center;html=1;shape=mxgraph.mockup.forms.rrect;rSize=0;strokeColor=#999999;fontColor=#999999;fillColor=#ddeeff;" parent="Eroy5vExTZT6iTykI3cA-22" vertex="1">
          <mxGeometry x="70" y="153.6" width="20" height="23.999999999999996" as="geometry"/>
        </mxCell>
        <mxCell id="Eroy5vExTZT6iTykI3cA-64" value="2" style="strokeWidth=1;shadow=0;dashed=0;align=center;html=1;shape=mxgraph.mockup.forms.rrect;rSize=0;strokeColor=#999999;fontColor=#999999;fillColor=#ddeeff;" parent="Eroy5vExTZT6iTykI3cA-22" vertex="1">
          <mxGeometry x="90" y="153.6" width="20" height="23.999999999999996" as="geometry"/>
        </mxCell>
        <mxCell id="Eroy5vExTZT6iTykI3cA-65" value="3" style="strokeWidth=1;shadow=0;dashed=0;align=center;html=1;shape=mxgraph.mockup.forms.rrect;rSize=0;strokeColor=#999999;fontColor=#999999;fillColor=#ddeeff;" parent="Eroy5vExTZT6iTykI3cA-22" vertex="1">
          <mxGeometry x="110" y="153.6" width="20" height="23.999999999999996" as="geometry"/>
        </mxCell>
        <mxCell id="Eroy5vExTZT6iTykI3cA-66" value="4" style="strokeWidth=1;shadow=0;dashed=0;align=center;html=1;shape=mxgraph.mockup.forms.rrect;rSize=0;strokeColor=#999999;fontColor=#999999;fillColor=#ddeeff;" parent="Eroy5vExTZT6iTykI3cA-22" vertex="1">
          <mxGeometry x="130" y="153.6" width="20" height="23.999999999999996" as="geometry"/>
        </mxCell>
        <mxCell id="Eroy5vExTZT6iTykI3cA-67" value="5" style="strokeWidth=1;shadow=0;dashed=0;align=center;html=1;shape=mxgraph.mockup.forms.rrect;rSize=0;strokeColor=#999999;fontColor=#999999;fillColor=#ddeeff;" parent="Eroy5vExTZT6iTykI3cA-22" vertex="1">
          <mxGeometry x="10" y="177.6" width="20" height="23.999999999999996" as="geometry"/>
        </mxCell>
        <mxCell id="Eroy5vExTZT6iTykI3cA-68" value="6" style="strokeWidth=1;shadow=0;dashed=0;align=center;html=1;shape=mxgraph.mockup.forms.rrect;rSize=0;strokeColor=#999999;fontColor=#999999;fillColor=#ddeeff;" parent="Eroy5vExTZT6iTykI3cA-22" vertex="1">
          <mxGeometry x="30" y="177.6" width="20" height="23.999999999999996" as="geometry"/>
        </mxCell>
        <mxCell id="Eroy5vExTZT6iTykI3cA-69" value="7" style="strokeWidth=1;shadow=0;dashed=0;align=center;html=1;shape=mxgraph.mockup.forms.rrect;rSize=0;strokeColor=#999999;fontColor=#999999;fillColor=#ddeeff;" parent="Eroy5vExTZT6iTykI3cA-22" vertex="1">
          <mxGeometry x="50" y="177.6" width="20" height="23.999999999999996" as="geometry"/>
        </mxCell>
        <mxCell id="Eroy5vExTZT6iTykI3cA-70" value="8" style="strokeWidth=1;shadow=0;dashed=0;align=center;html=1;shape=mxgraph.mockup.forms.rrect;rSize=0;strokeColor=#999999;fontColor=#999999;fillColor=#ddeeff;" parent="Eroy5vExTZT6iTykI3cA-22" vertex="1">
          <mxGeometry x="70" y="177.6" width="20" height="23.999999999999996" as="geometry"/>
        </mxCell>
        <mxCell id="Eroy5vExTZT6iTykI3cA-71" value="9" style="strokeWidth=1;shadow=0;dashed=0;align=center;html=1;shape=mxgraph.mockup.forms.rrect;rSize=0;strokeColor=#999999;fontColor=#999999;fillColor=#ddeeff;" parent="Eroy5vExTZT6iTykI3cA-22" vertex="1">
          <mxGeometry x="90" y="177.6" width="20" height="23.999999999999996" as="geometry"/>
        </mxCell>
        <mxCell id="Eroy5vExTZT6iTykI3cA-72" value="10" style="strokeWidth=1;shadow=0;dashed=0;align=center;html=1;shape=mxgraph.mockup.forms.rrect;rSize=0;strokeColor=#999999;fontColor=#999999;fillColor=#ddeeff;" parent="Eroy5vExTZT6iTykI3cA-22" vertex="1">
          <mxGeometry x="110" y="177.6" width="20" height="23.999999999999996" as="geometry"/>
        </mxCell>
        <mxCell id="Eroy5vExTZT6iTykI3cA-73" value="11" style="strokeWidth=1;shadow=0;dashed=0;align=center;html=1;shape=mxgraph.mockup.forms.rrect;rSize=0;strokeColor=#999999;fontColor=#999999;fillColor=#ddeeff;" parent="Eroy5vExTZT6iTykI3cA-22" vertex="1">
          <mxGeometry x="130" y="177.6" width="20" height="23.999999999999996" as="geometry"/>
        </mxCell>
        <mxCell id="Eroy5vExTZT6iTykI3cA-74" value="24" style="strokeWidth=1;shadow=0;dashed=0;align=center;html=1;shape=mxgraph.mockup.forms.rrect;rSize=0;strokeColor=#ff0000;fontColor=#ffffff;strokeWidth=2;fillColor=#008cff;" parent="Eroy5vExTZT6iTykI3cA-22" vertex="1">
          <mxGeometry x="50" y="129.6" width="20" height="23.999999999999996" as="geometry"/>
        </mxCell>
        <mxCell id="Eroy5vExTZT6iTykI3cA-145" value="" style="html=1;shadow=0;dashed=0;align=center;verticalAlign=middle;shape=mxgraph.arrows2.arrow;dy=0.6;dx=40;notch=0;fillColor=#000000;" parent="1" vertex="1">
          <mxGeometry x="260" y="505" width="130" height="40" as="geometry"/>
        </mxCell>
        <mxCell id="Eroy5vExTZT6iTykI3cA-146" value="" style="endArrow=classic;html=1;exitX=0.85;exitY=0.188;exitDx=0;exitDy=0;exitPerimeter=0;" parent="1" edge="1" source="Eroy5vExTZT6iTykI3cA-3">
          <mxGeometry width="50" height="50" relative="1" as="geometry">
            <mxPoint x="240" y="300" as="sourcePoint"/>
            <mxPoint x="280" y="250" as="targetPoint"/>
            <Array as="points"/>
          </mxGeometry>
        </mxCell>
        <mxCell id="Eroy5vExTZT6iTykI3cA-148" value="APoD Image" style="rounded=0;whiteSpace=wrap;html=1;fillColor=#99CCFF;" parent="1" vertex="1">
          <mxGeometry x="252" y="210" width="100" height="40" as="geometry"/>
        </mxCell>
        <mxCell id="Eroy5vExTZT6iTykI3cA-149" value="" style="endArrow=classic;html=1;" parent="1" edge="1">
          <mxGeometry width="50" height="50" relative="1" as="geometry">
            <mxPoint x="109" y="533" as="sourcePoint"/>
            <mxPoint x="90" y="600" as="targetPoint"/>
          </mxGeometry>
        </mxCell>
        <mxCell id="Eroy5vExTZT6iTykI3cA-150" value="Share button" style="rounded=0;whiteSpace=wrap;html=1;fillColor=#99CCFF;" parent="1" vertex="1">
          <mxGeometry x="40" y="600" width="120" height="40" as="geometry"/>
        </mxCell>
        <mxCell id="iyim1byzDr8bJ4tpWwPZ-5" value="" style="strokeWidth=1;html=1;shadow=0;dashed=0;shape=mxgraph.android.split_action_bar;fillColor=#1A1A1A;" vertex="1" parent="1">
          <mxGeometry x="-220" y="490" width="90" height="30" as="geometry"/>
        </mxCell>
        <mxCell id="iyim1byzDr8bJ4tpWwPZ-6" value="Split" style="strokeWidth=1;html=1;shadow=0;dashed=0;shape=mxgraph.android.anchor;fontStyle=1;fontColor=#ffffff;" vertex="1" parent="iyim1byzDr8bJ4tpWwPZ-5">
          <mxGeometry width="90" height="12.857142857142856" as="geometry"/>
        </mxCell>
        <mxCell id="iyim1byzDr8bJ4tpWwPZ-7" value="Action" style="strokeWidth=1;html=1;shadow=0;dashed=0;shape=mxgraph.android.anchor;fontStyle=1;fontColor=#ffffff;" vertex="1" parent="iyim1byzDr8bJ4tpWwPZ-5">
          <mxGeometry y="17.142857142857142" width="90" height="12.857142857142856" as="geometry"/>
        </mxCell>
      </root>
    </mxGraphModel>
  </diagram>
</mxfile>
